<svg xmlns="http://www.w3.org/2000/svg" version="1.1" xmlns:xlink="http://www.w3.org/1999/xlink" xmlns:svgjs="http://svgjs.dev/svgjs" width="1000" height="1000" viewBox="0 0 1000 1000"><rect width="1000" height="1000" fill="#ffffff"></rect><g transform="matrix(0.7,0,0,0.7,149.5757664739143,435.28684995338836)"><svg viewBox="0 0 396 74" data-background-color="#01ff70" preserveAspectRatio="xMidYMid meet" height="186" width="1000" xmlns="http://www.w3.org/2000/svg" xmlns:xlink="http://www.w3.org/1999/xlink"><g id="tight-bounds" transform="matrix(1,0,0,1,0.23999496618560556,-0.219728108658245)"><svg viewBox="0 0 395.5199999999999 74.43958326064991" height="74.43958326064991" width="395.5199999999999"><g><svg viewBox="0 0 501.5011278081576 94.38596015065025" height="74.43958326064991" width="395.5199999999999"><g transform="matrix(1,0,0,1,105.98112780815764,1.6618849712970416)"><svg viewBox="0 0 395.52 91.06219020805617" height="91.06219020805617" width="395.52"><g><svg viewBox="0 0 395.52 91.06219020805617" height="91.06219020805617" width="395.52"><g><svg viewBox="0 0 395.52 49.11459412022817" height="49.11459412022817" width="395.52"><g transform="matrix(1,0,0,1,0,0)"><svg width="395.52" viewBox="0.699999988079071 -38.75 340.7699890136719 42.45000076293945" height="49.11459412022817" data-palette-color="#ee3e38"><path d="M37.25-33.4Q39.1-33.05 39.68-32.83 40.25-32.6 40.45-32.15L40.45-32.15Q39.4-28.1 37.7-20.68 36-13.25 35.4-10.7L35.4-10.7Q34.3-5.6 33.35-1.65L33.35-1.65Q32.65 1.1 31.15 1.1L31.15 1.1Q26.55 1.1 26.55-1.05L26.55-1.05Q26.55-0.2 29.15-12.35L29.15-12.35 30.05-16.65 20.1-1.25Q19.3-0.25 17.75-0.25L17.75-0.25Q16.45-0.25 15.33-0.9 14.2-1.55 14.35-2.2L14.35-2.2 11.6-18.35 7.5-1.8Q7.15-0.35 6.43 0.15 5.7 0.65 3.7 0.65L3.7 0.65Q2.15 0.65 1.43 0.13 0.7-0.4 0.7-1.65L0.7-1.65Q0.7-2.2 0.85-2.7L0.85-2.7 7.7-29.75Q8.25-31.95 8.88-32.68 9.5-33.4 11.15-33.4L11.15-33.4Q12.5-33.4 13.55-33.1 14.6-32.8 14.65-32.2L14.65-32.2 14.65-32.1 18.65-7.25Q20.8-10.7 25.73-18.65 30.65-26.6 33.45-31.05L33.45-31.05Q33.95-32.3 34.58-32.68 35.2-33.05 36.02-33.2 36.85-33.35 37.25-33.4L37.25-33.4ZM26.55-1.05L26.55-1.05ZM60.9-2.6Q61-1.3 61.25-0.25L61.25-0.25Q61.15 0.05 60.37 0.35 59.6 0.65 59.05 0.65L59.05 0.65Q57.25 0.65 56.47 0.13 55.7-0.4 55.7-1.45L55.7-1.45Q55.7-2.45 55.9-3.45L55.9-3.45Q54.8-1.95 52.67-0.98 50.55 0 49.25 0L49.25 0Q45.9 0 43.67-1.95 41.45-3.9 41.45-8.2L41.45-8.2Q41.45-12.25 43.37-15.83 45.3-19.4 48.7-21.58 52.1-23.75 56.25-23.75L56.25-23.75Q57.05-23.75 58.35-23.33 59.65-22.9 60.97-21.88 62.3-20.85 63.2-19.25L63.2-19.25Q63.6-19.25 64.15-18.85 64.7-18.45 64.7-18.05L64.7-18.05Q64.7-17.6 64.55-17.15L64.55-17.15 60.9-2.6ZM58.65-16.6Q58.35-17.7 57.47-18.45 56.6-19.2 55.9-19.2L55.9-19.2Q53.6-19.2 51.57-17.57 49.55-15.95 48.3-13.55 47.05-11.15 47.05-9L47.05-9Q47.05-6.9 47.55-5.55 48.05-4.2 49.5-4.2L49.5-4.2Q50.75-4.2 52.37-4.95 54-5.7 55.27-6.98 56.55-8.25 56.95-9.65L56.95-9.65 58.65-16.6ZM83.4-19.35Q82.8-19.65 81.9-19.65L81.9-19.65Q79.65-19.65 77.4-18.75 75.15-17.85 75.15-16.45L75.15-16.45Q75.15-15.45 76.05-14.85 76.95-14.25 78.9-13.5L78.9-13.5Q81-12.65 82.3-11.9 83.6-11.15 84.57-9.73 85.55-8.3 85.55-6.1L85.55-6.1Q85.55-2.5 82.57-0.58 79.6 1.35 74.6 1.35L74.6 1.35Q72.15 1.35 70.05 0.6 67.95-0.15 66.72-1.33 65.5-2.5 65.4-3.65L65.4-3.65Q65.4-4.85 66.45-5.63 67.5-6.4 69.4-6.65L69.4-6.65Q69.45-5.65 70.45-4.78 71.45-3.9 72.82-3.38 74.2-2.85 75.2-2.85L75.2-2.85Q76.9-2.85 78.3-3.78 79.7-4.7 79.7-5.95L79.7-5.95Q79.7-8.25 75.25-9.6L75.25-9.6Q72.4-10.45 70.87-12.3 69.35-14.15 69.35-16.2L69.35-16.2Q69.35-20.25 73.02-22.03 76.7-23.8 82.4-23.8L82.4-23.8Q85.6-23.8 87.35-23.05 89.1-22.3 89.1-20.45L89.1-20.45Q89.1-19.2 88.17-18.25 87.25-17.3 85.55-17.3L85.55-17.3Q84.05-17.3 83.62-17.53 83.2-17.75 83.15-18.3L83.15-18.3Q83.15-18.8 83.4-19.35L83.4-19.35ZM97.54-16.5Q98.69-18.75 100.72-20.35 102.74-21.95 104.84-22.8 106.94-23.65 108.29-23.65L108.29-23.65Q110.89-23.65 112.04-22.68 113.19-21.7 113.19-19.6L113.19-19.6Q110.24-11.9 109.29-3L109.29-3 109.99-0.55Q109.39 0.6 108.39 1.28 107.39 1.95 105.34 1.95L105.34 1.95Q104.14 1.95 103.59 1.15 103.04 0.35 103.04-0.85L103.04-0.85Q103.04-4.2 104.02-8.22 104.99-12.25 106.29-16.45L106.29-16.45Q106.79-18.05 106.79-18.1L106.79-18.1Q106.79-18.8 105.99-18.8L105.99-18.8Q104.94-18.8 102.94-17.25 100.94-15.7 98.79-12.03 96.64-8.35 95.19-2.4L95.19-2.4Q95.14-2.15 94.94-1.35 94.74-0.55 94.04-0.2 93.34 0.15 91.89 0.15L91.89 0.15Q90.14 0.15 89.19-0.23 88.24-0.6 88.24-1.7L88.24-1.7Q94.79-27.45 96.34-33.9L96.34-33.9Q96.29-34.55 96.27-35.63 96.24-36.7 96.24-37.3L96.24-37.3Q96.39-38 97.32-38.38 98.24-38.75 99.19-38.75L99.19-38.75Q100.79-38.75 101.89-37.9 102.99-37.05 103.09-35.75L103.09-35.75 97.54-16.5ZM121.89-1.9Q121.84-1.6 121.67-0.73 121.49 0.15 120.82 0.5 120.14 0.85 118.69 0.85L118.69 0.85Q117.04 0.85 116.29 0.5 115.54 0.15 115.54-1L115.54-1 117.94-10.55Q119.94-18.8 120.59-21.05L120.59-21.05 119.34-22.55Q119.19-22.7 119.19-22.9L119.19-22.9Q119.19-23.4 120.29-23.73 121.39-24.05 123.34-24.05L123.34-24.05Q125.09-24.05 125.69-23.08 126.29-22.1 126.44-20.55L126.44-20.55 126.09-19.25Q127.69-21.2 129.82-22.48 131.94-23.75 133.59-23.75L133.59-23.75Q135.74-23.75 136.94-23 138.14-22.25 138.14-21.05L138.14-21.05Q138.14-20 137.42-18.88 136.69-17.75 135.59-16.98 134.49-16.2 133.44-16.1L133.44-16.1Q132.44-16.1 132.09-16.35 131.74-16.6 131.74-17.1L131.74-17.1 132.04-18.75Q128.04-17.65 124.79-13.45L124.79-13.45 121.89-1.9ZM155.69-2.6Q155.79-1.3 156.04-0.25L156.04-0.25Q155.94 0.05 155.16 0.35 154.39 0.65 153.84 0.65L153.84 0.65Q152.04 0.65 151.26 0.13 150.49-0.4 150.49-1.45L150.49-1.45Q150.49-2.45 150.69-3.45L150.69-3.45Q149.59-1.95 147.46-0.98 145.34 0 144.04 0L144.04 0Q140.69 0 138.46-1.95 136.24-3.9 136.24-8.2L136.24-8.2Q136.24-12.25 138.16-15.83 140.09-19.4 143.49-21.58 146.89-23.75 151.04-23.75L151.04-23.75Q151.84-23.75 153.14-23.33 154.44-22.9 155.76-21.88 157.09-20.85 157.99-19.25L157.99-19.25Q158.39-19.25 158.94-18.85 159.49-18.45 159.49-18.05L159.49-18.05Q159.49-17.6 159.34-17.15L159.34-17.15 155.69-2.6ZM153.44-16.6Q153.14-17.7 152.26-18.45 151.39-19.2 150.69-19.2L150.69-19.2Q148.39-19.2 146.36-17.57 144.34-15.95 143.09-13.55 141.84-11.15 141.84-9L141.84-9Q141.84-6.9 142.34-5.55 142.84-4.2 144.29-4.2L144.29-4.2Q145.54-4.2 147.16-4.95 148.79-5.7 150.06-6.98 151.34-8.25 151.74-9.65L151.74-9.65 153.44-16.6ZM174.19-16.9L169.64 1.7Q169.24 2.5 168.36 3.1 167.49 3.7 166.49 3.7L166.49 3.7Q165.59 3.7 164.66 3.03 163.74 2.35 163.74 1.25L163.74 1.25 163.74 0.95 167.99-16.4 163.34-16Q161.79-16 161.79-17.55L161.79-17.55Q161.79-18.8 162.69-20.05L162.69-20.05Q162.84-20.25 169.24-20.95L169.24-20.95 170.14-25.1Q171.34-30.3 173.96-32.98 176.59-35.65 181.39-35.65L181.39-35.65Q183.69-35.65 185.39-34.65 187.09-33.65 187.94-32.1 188.79-30.55 188.79-28.95L188.79-28.95Q188.79-27.7 188.21-26.95 187.64-26.2 185.84-26.2L185.84-26.2Q185.19-26.2 184.91-26.6 184.64-27 184.34-27.95L184.34-27.95Q183.99-29.2 183.39-29.9 182.79-30.6 181.29-30.6L181.29-30.6Q179.59-30.6 178.41-29.68 177.24-28.75 176.89-27.45L176.89-27.45 175.34-21.55 178.39-21.85Q180.39-22.05 180.54-22.05L180.54-22.05Q182.44-22.05 182.44-19.85L182.44-19.85Q182.44-19 181.71-18.32 180.99-17.65 180.14-17.5L180.14-17.5 174.19-16.9ZM189.58-29.7Q189.58-31.25 190.56-32.45 191.53-33.65 193.28-33.65L193.28-33.65Q195.13-33.65 196.51-32.5 197.88-31.35 197.88-29.9L197.88-29.9Q197.88-28.45 196.48-27.4 195.08-26.35 193.23-26.35L193.23-26.35Q191.43-26.35 190.51-27.28 189.58-28.2 189.58-29.7L189.58-29.7ZM194.83-20.85Q192.18-10.05 190.78-4.6L190.78-4.6Q190.58-3.8 190.58-2.85L190.58-2.85 190.63-1.45Q190.63-0.6 190.11-0.25 189.58 0.1 187.88 0.15L187.88 0.15Q186.23 0.15 185.38-0.2 184.53-0.55 184.53-1.7L184.53-1.7Q184.53-2.25 185.81-7.55 187.08-12.85 189.28-21.35L189.28-21.35 188.13-22.85Q187.98-23 187.98-23.2L187.98-23.2Q187.98-23.7 189.08-24.03 190.18-24.35 192.13-24.35L192.13-24.35Q193.83-24.35 194.31-23.38 194.78-22.4 194.83-20.85L194.83-20.85ZM246.88-33.4Q248.73-33.05 249.3-32.83 249.88-32.6 250.08-32.15L250.08-32.15Q249.03-28.1 247.33-20.68 245.63-13.25 245.03-10.7L245.03-10.7Q243.93-5.6 242.98-1.65L242.98-1.65Q242.28 1.1 240.78 1.1L240.78 1.1Q236.18 1.1 236.18-1.05L236.18-1.05Q236.18-0.2 238.78-12.35L238.78-12.35 239.68-16.65 229.73-1.25Q228.93-0.25 227.38-0.25L227.38-0.25Q226.08-0.25 224.95-0.9 223.83-1.55 223.98-2.2L223.98-2.2 221.23-18.35 217.13-1.8Q216.78-0.35 216.05 0.15 215.33 0.65 213.33 0.65L213.33 0.65Q211.78 0.65 211.05 0.13 210.33-0.4 210.33-1.65L210.33-1.65Q210.33-2.2 210.48-2.7L210.48-2.7 217.33-29.75Q217.88-31.95 218.5-32.68 219.13-33.4 220.78-33.4L220.78-33.4Q222.13-33.4 223.18-33.1 224.23-32.8 224.28-32.2L224.28-32.2 224.28-32.1 228.28-7.25Q230.43-10.7 235.35-18.65 240.28-26.6 243.08-31.05L243.08-31.05Q243.58-32.3 244.2-32.68 244.83-33.05 245.65-33.2 246.48-33.35 246.88-33.4L246.88-33.4ZM236.18-1.05L236.18-1.05ZM270.53-2.6Q270.63-1.3 270.88-0.25L270.88-0.25Q270.78 0.05 270 0.35 269.23 0.65 268.68 0.65L268.68 0.65Q266.88 0.65 266.1 0.13 265.33-0.4 265.33-1.45L265.33-1.45Q265.33-2.45 265.53-3.45L265.53-3.45Q264.43-1.95 262.3-0.98 260.18 0 258.88 0L258.88 0Q255.53 0 253.3-1.95 251.08-3.9 251.08-8.2L251.08-8.2Q251.08-12.25 253-15.83 254.93-19.4 258.33-21.58 261.73-23.75 265.88-23.75L265.88-23.75Q266.68-23.75 267.98-23.33 269.28-22.9 270.6-21.88 271.93-20.85 272.83-19.25L272.83-19.25Q273.23-19.25 273.78-18.85 274.33-18.45 274.33-18.05L274.33-18.05Q274.33-17.6 274.18-17.15L274.18-17.15 270.53-2.6ZM268.28-16.6Q267.98-17.7 267.1-18.45 266.23-19.2 265.53-19.2L265.53-19.2Q263.23-19.2 261.2-17.57 259.18-15.95 257.93-13.55 256.68-11.15 256.68-9L256.68-9Q256.68-6.9 257.18-5.55 257.68-4.2 259.13-4.2L259.13-4.2Q260.38-4.2 262-4.95 263.63-5.7 264.9-6.98 266.18-8.25 266.58-9.65L266.58-9.65 268.28-16.6ZM284.17-16.5Q285.32-18.75 287.35-20.35 289.37-21.95 291.47-22.8 293.57-23.65 294.92-23.65L294.92-23.65Q297.52-23.65 298.67-22.68 299.82-21.7 299.82-19.6L299.82-19.6Q296.87-11.9 295.92-3L295.92-3 296.62-0.55Q296.02 0.6 295.02 1.28 294.02 1.95 291.97 1.95L291.97 1.95Q290.77 1.95 290.22 1.15 289.67 0.35 289.67-0.85L289.67-0.85Q289.67-4.2 290.65-8.22 291.62-12.25 292.92-16.45L292.92-16.45Q293.42-18.05 293.42-18.1L293.42-18.1Q293.42-18.8 292.62-18.8L292.62-18.8Q291.57-18.8 289.57-17.25 287.57-15.7 285.42-12.03 283.27-8.35 281.82-2.4L281.82-2.4Q281.77-2.15 281.57-1.35 281.37-0.55 280.67-0.2 279.97 0.15 278.52 0.15L278.52 0.15Q276.77 0.15 275.82-0.23 274.87-0.6 274.87-1.7L274.87-1.7Q281.42-27.45 282.97-33.9L282.97-33.9Q282.92-34.55 282.9-35.63 282.87-36.7 282.87-37.3L282.87-37.3Q283.02-38 283.95-38.38 284.87-38.75 285.82-38.75L285.82-38.75Q287.42-38.75 288.52-37.9 289.62-37.05 289.72-35.75L289.72-35.75 284.17-16.5ZM308.47-29.7Q308.47-31.25 309.45-32.45 310.42-33.65 312.17-33.65L312.17-33.65Q314.02-33.65 315.4-32.5 316.77-31.35 316.77-29.9L316.77-29.9Q316.77-28.45 315.37-27.4 313.97-26.35 312.12-26.35L312.12-26.35Q310.32-26.35 309.4-27.28 308.47-28.2 308.47-29.7L308.47-29.7ZM313.72-20.85Q311.07-10.05 309.67-4.6L309.67-4.6Q309.47-3.8 309.47-2.85L309.47-2.85 309.52-1.45Q309.52-0.6 309-0.25 308.47 0.1 306.77 0.15L306.77 0.15Q305.12 0.15 304.27-0.2 303.42-0.55 303.42-1.7L303.42-1.7Q303.42-2.25 304.7-7.55 305.97-12.85 308.17-21.35L308.17-21.35 307.02-22.85Q306.87-23 306.87-23.2L306.87-23.2Q306.87-23.7 307.97-24.03 309.07-24.35 311.02-24.35L311.02-24.35Q312.72-24.35 313.2-23.38 313.67-22.4 313.72-20.85L313.72-20.85ZM319.67-22.85Q319.52-23 319.52-23.2L319.52-23.2Q319.52-23.7 320.62-24.03 321.72-24.35 323.67-24.35L323.67-24.35Q325.47-24.35 326.32-23.43 327.17-22.5 327.32-21.2L327.32-21.2 326.42-17.95Q327.47-19.4 329.37-20.73 331.27-22.05 333.22-22.85 335.17-23.65 336.42-23.65L336.42-23.65Q339.07-23.65 340.27-22.68 341.47-21.7 341.47-19.6L341.47-19.6Q338.52-11.9 337.57-3L337.57-3 338.27-0.55Q337.67 0.6 336.59 1.28 335.52 1.95 333.47 1.95L333.47 1.95Q332.27 1.95 331.72 1.15 331.17 0.35 331.17-0.85L331.17-0.85Q331.17-4.2 332.14-8.22 333.12-12.25 334.42-16.45L334.42-16.45Q334.92-18.05 334.92-18.1L334.92-18.1Q334.92-18.8 334.12-18.8L334.12-18.8Q333.02-18.8 330.79-17.25 328.57-15.7 326.22-12.03 323.87-8.35 322.42-2.4L322.42-2.4Q322.32-2.1 322.17-1.3 322.02-0.5 321.37-0.18 320.72 0.15 319.27 0.15L319.27 0.15Q317.62 0.15 316.84-0.2 316.07-0.55 316.07-1.7L316.07-1.7Q316.22-2.4 316.52-3.4L316.52-3.4Q319.42-15.05 320.97-21.35L320.97-21.35 319.67-22.85Z" opacity="1" transform="matrix(1,0,0,1,0,0)" fill="#000000" class="undefined-text-0" data-fill-palette-color="primary" id="text-0"></path></svg></g></svg></g><g transform="matrix(1,0,0,1,0,60.709371041755155)"><svg viewBox="0 0 395.52 30.352819166301007" height="30.352819166301007" width="395.52"><g transform="matrix(1,0,0,1,0,0)"><svg width="395.52" viewBox="0 -37.95000076293945 764.25 58.650001525878906" height="30.352819166301007" data-palette-color="#8d021f"><path d="M22.45-5.4L22.45-5.4Q22.85-5.4 22.85-4.8L22.85-4.8Q22.85-4.05 20.53-2.5 18.2-0.95 14.53 0.38 10.85 1.7 7.8 1.7L7.8 1.7Q0 1.7 0-6.95L0-6.95Q0-11.35 1.98-15.8 3.95-20.25 7.08-23.73 10.2-27.2 13.88-29.95 17.55-32.7 21.18-34.18 24.8-35.65 27.55-35.65L27.55-35.65Q33.25-35.65 33.25-31.25L33.25-31.25Q33.25-27.95 30.2-23.4 27.15-18.85 22.75-15.5 18.35-12.15 14.85-12.15L14.85-12.15Q12.15-12.15 12.15-14.7L12.15-14.7Q12.15-17.95 16.38-22.73 20.6-27.5 23.6-27.5L23.6-27.5Q24-27.5 24-27.2L24-27.2 23.75-26.55Q21.95-26.55 19.5-24.5 17.05-22.45 15.35-19.75 13.65-17.05 13.65-15.25L13.65-15.25Q13.65-13.25 15.7-13.25L15.7-13.25Q18.25-13.25 21.98-16.35 25.7-19.45 28.43-23.68 31.15-27.9 31.15-30.8L31.15-30.8Q31.15-34.45 26.55-34.45L26.55-34.45Q24.15-34.45 20.9-33.08 17.65-31.7 14.35-29.1 11.05-26.5 8.22-23.25 5.4-20 3.63-15.83 1.85-11.65 1.85-7.5L1.85-7.5Q1.85 0.4 8.85 0.4L8.85 0.4Q12.5 0.4 16.75-1.58 21-3.55 22.45-5.4ZM37.71-0.65L37.71-0.65Q38.16-0.65 42.74-4.63 47.31-8.6 48.11-8.6 48.91-8.6 48.91-7.9L48.91-7.9Q48.91-7.35 47.91-6.2 46.91-5.05 45.94-3.7 44.96-2.35 44.96-1.3L44.96-1.3Q44.96-0.75 45.79-0.75 46.61-0.75 48.71-1.73 50.81-2.7 52.41-3.7L52.41-3.7 54.01-4.7Q54.06-4.6 54.06-4.3 54.06-4 53.61-3.8L53.61-3.8Q46.86 0.8 44.21 0.8L44.21 0.8Q42.91 0.8 42.91-0.6L42.91-0.6Q42.91-1.55 43.61-2.9 44.31-4.25 45.01-5.15L45.01-5.15 45.66-6.05Q43.41-4.35 41.01-2.23 38.61-0.1 37.36 0.98 36.11 2.05 35.61 2.05 35.11 2.05 35.11 1.33 35.11 0.6 37.46-3.7 39.81-8 42.89-12.98 45.96-17.95 49.34-22 52.71-26.05 54.46-26.05L54.46-26.05Q55.21-26.05 55.51-25.35L55.51-25.35Q55.66-25.1 55.66-24.75L55.66-24.75Q55.66-21.3 45.31-11.5L45.31-11.5Q43.36-9.6 41.51-8L41.51-8Q37.71-1.6 37.71-0.65ZM54.01-24.2L54.01-24.2Q54.01-24.7 53.76-24.7L53.76-24.7Q52.76-24.7 49.56-20.3 46.36-15.9 42.76-10.05L42.76-10.05Q54.01-20.3 54.01-24.2ZM76.03-5.95L76.03-5.95Q75.73-5.95 75.73-6.3L75.73-6.3 75.88-6.65Q76.78-7.5 76.78-8.1L76.78-8.1Q76.78-8.85 75.98-8.85L75.98-8.85Q74.23-8.85 71.25-6.43 68.28-4 68.28-2.1L68.28-2.1Q68.28-1.3 69.33-1.3 70.38-1.3 71.75-2.18 73.13-3.05 74.1-3.93 75.08-4.8 75.18-4.8L75.18-4.8Q75.68-4.75 75.68-4.3L75.68-4.3Q75.68-4.1 74.9-3 74.13-1.9 74.13-1.25L74.13-1.25Q74.13-0.75 74.95-0.75 75.78-0.75 77.88-1.73 79.98-2.7 81.58-3.7L81.58-3.7 83.18-4.7Q83.23-4.6 83.23-4.3 83.23-4 82.78-3.8L82.78-3.8Q76.03 0.8 73.38 0.8L73.38 0.8Q72.08 0.8 72.08-0.5L72.08-0.5Q72.08-1.05 72.28-1.65L72.28-1.65Q71.93-1.25 70.2-0.43 68.48 0.4 67.13 0.4 65.78 0.4 65.78-0.85L65.78-0.85Q65.78-3.8 69.88-6.88 73.98-9.95 76.78-9.95L76.78-9.95Q78.43-9.95 78.43-8.55L78.43-8.55Q78.43-7.75 77.43-6.85 76.43-5.95 76.03-5.95ZM95.69-3.8L95.69-3.8Q96.64-4.35 98.19-5.55L98.19-5.55Q101.99-8.55 102.24-8.55L102.24-8.55Q102.99-8.55 102.99-7.9 102.99-7.25 102.22-5.9 101.44-4.55 100.47-3.1 99.49-1.65 99.34-1.35L99.34-1.35Q99.39-1.3 99.57-1.3 99.74-1.3 101.54-2.63 103.34-3.95 105.29-5.43 107.24-6.9 107.59-7.13 107.94-7.35 108.24-7.35L108.24-7.35Q108.84-7.3 108.84-6.65L108.84-6.65Q108.84-6.4 107.14-4.13 105.44-1.85 105.44-1.2L105.44-1.2Q105.44-0.75 106.52-0.75 107.59-0.75 109.69-1.73 111.79-2.7 113.39-3.7L113.39-3.7 114.99-4.7Q115.04-4.6 115.04-4.3 115.04-4 114.59-3.8L114.59-3.8Q107.84 0.8 105.19 0.8L105.19 0.8Q103.64 0.8 103.64-0.4L103.64-0.4Q103.64-1.55 104.32-2.6 104.99-3.65 105.49-4.38 105.99-5.1 105.99-5.15L105.99-5.15Q103.69-3.5 100.54-1.2 97.39 1.1 96.99 1.1L96.99 1.1Q96.69 1.1 96.69 0.4 96.69-0.3 98.67-3.25 100.64-6.2 100.64-6.4 100.64-6.6 100.54-6.6L100.54-6.6 100.04-6.35 97.54-4.35Q97.29-4.15 96.59-3.7 95.89-3.25 95.72-3.25 95.54-3.25 95.54-3.48 95.54-3.7 95.69-3.8ZM140.2-10L140.2-10Q140.2-9 138.9-7.85 137.6-6.7 137.03-6.7 136.45-6.7 136.45-7L136.45-7 136.8-7.45Q138.05-8.6 138.05-9.15L138.05-9.15Q138.05-9.85 137.3-9.85L137.3-9.85Q135.5-9.8 132.3-6.65 129.1-3.5 129.1-2L129.1-2Q129.1-1.35 129.83-1.35 130.55-1.35 131.85-2.02 133.15-2.7 134.1-3.4L134.1-3.4 135.1-4.1Q135.25-4.2 135.65-4.7L135.65-4.7Q136.75-6.05 137.1-6.05L137.1-6.05Q137.9-5.95 137.9-5.35L137.9-5.35Q136.6-3.45 133.05 2.5L133.05 2.5Q134.1 2.35 135.1 2.35L135.1 2.35Q137.5 2.35 137.5 3.6L137.5 3.6Q137.5 4.3 136.58 5.38 135.65 6.45 135.15 6.45 134.65 6.45 134.65 6.1L134.65 6.1Q134.65 5.9 135.2 5.48 135.75 5.05 135.75 4.45L135.75 4.45Q135.75 3.65 134.7 3.65 133.65 3.65 132.25 3.9L132.25 3.9Q130.05 7.7 128.78 9.83 127.5 11.95 125.6 14.6L125.6 14.6Q122 19.65 119.25 19.65L119.25 19.65Q117.55 19.65 117.55 17.9L117.55 17.9Q117.55 14.8 121.78 9.8 126 4.8 131.15 3.05L131.15 3.05 133.95-2.25Q133.35-1.85 131.9-1.15L131.9-1.15Q129.1 0.2 128 0.2L128 0.2Q126.65 0.2 126.65-1.2 126.65-2.6 128.8-5 130.95-7.4 133.9-9.28 136.85-11.15 138.8-11.15L138.8-11.15Q139.4-11.15 139.75-10.88 140.1-10.6 140.2-10ZM119.25 17.15L119.25 17.15Q119.25 18.2 120.05 18.2L120.05 18.2Q122.6 18.2 130.35 4.45L130.35 4.45Q125.8 6.15 122.53 10.4 119.25 14.65 119.25 17.15ZM163.12-15.25L163.12-15.25Q163.87-15.25 163.87-14.5 163.87-13.75 163.17-12.98 162.47-12.2 161.62-12.2L161.62-12.2Q160.92-12.2 160.92-13.18 160.92-14.15 161.72-14.7 162.52-15.25 163.12-15.25ZM158.42-8.65L158.42-8.65Q158.67-9.05 159.12-9.05 159.57-9.05 160.02-8.6L160.02-8.6Q160.02-8.4 159.37-7.7 158.72-7 157.17-4.58 155.62-2.15 155.62-1.35L155.62-1.35Q155.62-0.85 156.37-0.75L156.37-0.75Q157.37-0.75 159.47-1.73 161.57-2.7 163.17-3.7L163.17-3.7 164.77-4.7Q164.82-4.6 164.82-4.3 164.82-4 164.37-3.8L164.37-3.8Q157.62 0.8 154.97 0.8L154.97 0.8Q153.67 0.8 153.67-0.5 153.67-1.8 155.09-4.13 156.52-6.45 158.42-8.65ZM177.28-3.8L177.28-3.8Q178.23-4.35 179.78-5.55L179.78-5.55Q183.58-8.55 183.83-8.55L183.83-8.55Q184.58-8.55 184.58-7.9 184.58-7.25 183.81-5.9 183.03-4.55 182.06-3.1 181.08-1.65 180.93-1.35L180.93-1.35Q180.98-1.3 181.16-1.3 181.33-1.3 183.13-2.63 184.93-3.95 186.88-5.43 188.83-6.9 189.18-7.13 189.53-7.35 189.83-7.35L189.83-7.35Q190.43-7.3 190.43-6.65L190.43-6.65Q190.43-6.4 188.73-4.13 187.03-1.85 187.03-1.2L187.03-1.2Q187.03-0.75 188.11-0.75 189.18-0.75 191.28-1.73 193.38-2.7 194.98-3.7L194.98-3.7 196.58-4.7Q196.63-4.6 196.63-4.3 196.63-4 196.18-3.8L196.18-3.8Q189.43 0.8 186.78 0.8L186.78 0.8Q185.23 0.8 185.23-0.4L185.23-0.4Q185.23-1.55 185.91-2.6 186.58-3.65 187.08-4.38 187.58-5.1 187.58-5.15L187.58-5.15Q185.28-3.5 182.13-1.2 178.98 1.1 178.58 1.1L178.58 1.1Q178.28 1.1 178.28 0.4 178.28-0.3 180.26-3.25 182.23-6.2 182.23-6.4 182.23-6.6 182.13-6.6L182.13-6.6 181.63-6.35 179.13-4.35Q178.88-4.15 178.18-3.7 177.48-3.25 177.31-3.25 177.13-3.25 177.13-3.48 177.13-3.7 177.28-3.8ZM221.8-10L221.8-10Q221.8-9 220.5-7.85 219.2-6.7 218.62-6.7 218.05-6.7 218.05-7L218.05-7 218.4-7.45Q219.65-8.6 219.65-9.15L219.65-9.15Q219.65-9.85 218.9-9.85L218.9-9.85Q217.1-9.8 213.9-6.65 210.7-3.5 210.7-2L210.7-2Q210.7-1.35 211.42-1.35 212.15-1.35 213.45-2.02 214.75-2.7 215.7-3.4L215.7-3.4 216.7-4.1Q216.85-4.2 217.25-4.7L217.25-4.7Q218.35-6.05 218.7-6.05L218.7-6.05Q219.5-5.95 219.5-5.35L219.5-5.35Q218.2-3.45 214.65 2.5L214.65 2.5Q215.7 2.35 216.7 2.35L216.7 2.35Q219.1 2.35 219.1 3.6L219.1 3.6Q219.1 4.3 218.17 5.38 217.25 6.45 216.75 6.45 216.25 6.45 216.25 6.1L216.25 6.1Q216.25 5.9 216.8 5.48 217.35 5.05 217.35 4.45L217.35 4.45Q217.35 3.65 216.3 3.65 215.25 3.65 213.85 3.9L213.85 3.9Q211.65 7.7 210.37 9.83 209.1 11.95 207.2 14.6L207.2 14.6Q203.6 19.65 200.85 19.65L200.85 19.65Q199.15 19.65 199.15 17.9L199.15 17.9Q199.15 14.8 203.37 9.8 207.6 4.8 212.75 3.05L212.75 3.05 215.55-2.25Q214.95-1.85 213.5-1.15L213.5-1.15Q210.7 0.2 209.6 0.2L209.6 0.2Q208.25 0.2 208.25-1.2 208.25-2.6 210.4-5 212.55-7.4 215.5-9.28 218.45-11.15 220.4-11.15L220.4-11.15Q221-11.15 221.35-10.88 221.7-10.6 221.8-10ZM200.85 17.15L200.85 17.15Q200.85 18.2 201.65 18.2L201.65 18.2Q204.2 18.2 211.95 4.45L211.95 4.45Q207.4 6.15 204.12 10.4 200.85 14.65 200.85 17.15ZM256.02 0.65L255.87-0.05Q255.87-2.65 259.85-5.3 263.82-7.95 269.65-9.58 275.47-11.2 280.87-11.2L280.87-11.2Q282.22-11.2 283.82-11.05L283.82-11.05Q294.82-21.35 294.82-32.3L294.82-32.3Q294.82-35.25 292.87-35.25L292.87-35.25Q291.67-35.25 290.12-34.02 288.57-32.8 287.15-30.8 285.72-28.8 284.75-25.85 283.77-22.9 283.77-19.63 283.77-16.35 284.67-15.8L284.67-15.8Q284.92-15.65 284.92-15.45L284.92-15.45Q284.52-14.6 283.8-14.6 283.07-14.6 282.65-15.03 282.22-15.45 282.22-16.25L282.22-16.25Q282.22-20.65 283.5-24.83 284.77-29 286.62-31.78 288.47-34.55 290.52-36.25 292.57-37.95 294.17-37.95L294.17-37.95Q296.87-37.95 296.87-33.7L296.87-33.7Q296.87-21.45 285.37-10.85L285.37-10.85Q290.72-9.9 290.72-7.1L290.72-7.1Q290.72-6.1 289.45-5.03 288.17-3.95 287.4-3.9 286.62-3.85 286.57-4.05L286.57-4.05Q286.57-4.2 287.12-4.55L287.12-4.55Q289.22-5.85 289.22-6.75L289.22-6.75Q289.22-8.8 283.57-9.25L283.57-9.25Q277.32-3.95 270.07-0.6 262.82 2.75 259.62 2.75L259.62 2.75Q258.02 2.75 257.1 2.05 256.17 1.35 256.02 0.65L256.02 0.65ZM280.52-9.4L280.52-9.4Q275.57-9.4 270.35-8.2 265.12-7 261.5-4.95 257.87-2.9 257.82-0.75L257.82-0.75Q257.97 1.1 260.62 1.1L260.62 1.1Q264.17 1.1 270.27-1.8 276.37-4.7 281.92-9.35L281.92-9.35Q281.42-9.4 280.52-9.4ZM313.19-4.7L313.19-4.7Q312.84-3.35 312.84-1.8 312.84-0.25 314.14-0.25L314.14-0.25Q314.49-0.25 315.31-0.63 316.14-1 316.26-1 316.39-1 316.39-0.9L316.39-0.9Q316.39-0.3 315.34 0.35 314.29 1 313.24 1L313.24 1Q311.14 1 311.14-1.8L311.14-1.8Q311.14-2.45 311.19-2.8L311.19-2.8Q307.19 0.7 305.06 0.7 302.94 0.7 302.94-0.75L302.94-0.75Q302.94-2.9 306.61-6.13 310.29-9.35 313.59-9.8L313.59-9.8Q316.44-15.65 320.61-20.75 324.79-25.85 327.04-25.85L327.04-25.85Q327.44-25.85 327.69-25.43 327.94-25 327.94-24.6L327.94-24.6Q327.94-22.95 323.06-16.3 318.19-9.65 313.19-4.7ZM326.09-23.85L326.09-23.85Q326.09-24.25 325.79-24.25L325.79-24.25Q324.94-24.25 322.56-21.45 320.19-18.65 317.59-14.33 314.99-10 313.74-6.4L313.74-6.4Q318.39-11.3 322.24-16.55 326.09-21.8 326.09-23.85ZM305.34-1.15L305.34-1.15Q305.34-0.4 306.19-0.4L306.19-0.4Q307.54-0.4 311.44-4.15L311.44-4.15Q312.09-6.45 312.99-8.4L312.99-8.4Q310.54-7.8 307.94-5.2 305.34-2.6 305.34-1.15ZM335-4.85L335-4.85Q332-4.85 332-6.15L332-6.15Q332-7.7 335.55-9.83 339.1-11.95 341.95-11.95L341.95-11.95Q343.4-11.95 343.4-11.05L343.4-11.05Q343.4-10.55 342.65-9.95 341.9-9.35 341.2-9 340.5-8.65 340.4-8.65L340.4-8.65Q340.1-8.65 340-8.9L340-8.9Q339.9-9.25 340.52-9.63 341.15-10 341.15-10.45 341.15-10.9 340.02-10.9 338.9-10.9 336.5-9.33 334.1-7.75 334.1-6.75L334.1-6.75Q334.1-6 335.85-6L335.85-6Q336.15-6 336.95-6.05 337.75-6.1 337.75-5.85 337.75-5.6 335.27-4.05 332.8-2.5 332.8-1.4L332.8-1.4Q332.8-0.15 334.42-0.15 336.05-0.15 338.1-1L338.1-1Q341.4-2.45 344.1-4.1L344.1-4.1 345.05-4.7Q345.1-4.6 345.1-4.3 345.1-4 344.65-3.8L344.65-3.8Q342-2 338.85-0.38 335.7 1.25 333.17 1.25 330.65 1.25 330.65-0.43 330.65-2.1 335-4.85ZM367.01-5.95L367.01-5.95Q366.71-5.95 366.71-6.3L366.71-6.3 366.86-6.65Q367.76-7.5 367.76-8.1L367.76-8.1Q367.76-8.85 366.96-8.85L366.96-8.85Q365.21-8.85 362.24-6.43 359.26-4 359.26-2.1L359.26-2.1Q359.26-1.3 360.31-1.3 361.36-1.3 362.74-2.18 364.11-3.05 365.09-3.93 366.06-4.8 366.16-4.8L366.16-4.8Q366.66-4.75 366.66-4.3L366.66-4.3Q366.66-4.1 365.89-3 365.11-1.9 365.11-1.25L365.11-1.25Q365.11-0.75 365.94-0.75 366.76-0.75 368.86-1.73 370.96-2.7 372.56-3.7L372.56-3.7 374.16-4.7Q374.21-4.6 374.21-4.3 374.21-4 373.76-3.8L373.76-3.8Q367.01 0.8 364.36 0.8L364.36 0.8Q363.06 0.8 363.06-0.5L363.06-0.5Q363.06-1.05 363.26-1.65L363.26-1.65Q362.91-1.25 361.19-0.43 359.46 0.4 358.11 0.4 356.76 0.4 356.76-0.85L356.76-0.85Q356.76-3.8 360.86-6.88 364.96-9.95 367.76-9.95L367.76-9.95Q369.41-9.95 369.41-8.55L369.41-8.55Q369.41-7.75 368.41-6.85 367.41-5.95 367.01-5.95ZM389.73-5.45L389.73-5.45Q387.33-3.25 386.68-3.25L386.68-3.25Q386.48-3.25 386.48-3.45 386.48-3.65 386.63-3.8L386.63-3.8Q387.83-4.45 389.43-5.9L389.43-5.9Q389.18-6.5 389.18-7.2L389.18-7.2Q389.18-8.9 390.93-10.45 392.68-12 393.88-12L393.88-12Q394.53-12 394.53-11.38 394.53-10.75 392.53-8.35L392.53-8.35Q392.33-8.1 392.08-7.85 391.83-7.6 391.55-7.28 391.28-6.95 391.13-6.8L391.13-6.8Q391.38-6.55 392.03-5.93 392.68-5.3 393.08-4.9L393.08-4.9Q394.18-3.8 394.18-2.15 394.18-0.5 392.13 0.73 390.08 1.95 387.85 1.95 385.63 1.95 385.63 0.63 385.63-0.7 387.68-1.8 389.73-2.9 391.98-3.3L391.98-3.3Q391.68-3.7 390.85-4.35 390.03-5 389.73-5.45ZM392.33-2.7Q390.63-2.5 389.13-1.78 387.63-1.05 387.63-0.08 387.63 0.9 389 0.9 390.38 0.9 391.45 0.25 392.53-0.4 392.53-1.2 392.53-2 392.33-2.7L392.33-2.7ZM390.78-7.2L390.78-7.2 392.08-8.6Q393.38-10.15 393.38-10.48 393.38-10.8 393.08-10.8L393.08-10.8Q392.23-10.8 391.33-9.98 390.43-9.15 390.43-8.38 390.43-7.6 390.78-7.2ZM430.75 0.65L430.6-0.05Q430.6-2.65 434.58-5.3 438.55-7.95 444.38-9.58 450.2-11.2 455.6-11.2L455.6-11.2Q456.95-11.2 458.55-11.05L458.55-11.05Q469.55-21.35 469.55-32.3L469.55-32.3Q469.55-35.25 467.6-35.25L467.6-35.25Q466.4-35.25 464.85-34.02 463.3-32.8 461.88-30.8 460.45-28.8 459.48-25.85 458.5-22.9 458.5-19.63 458.5-16.35 459.4-15.8L459.4-15.8Q459.65-15.65 459.65-15.45L459.65-15.45Q459.25-14.6 458.53-14.6 457.8-14.6 457.38-15.03 456.95-15.45 456.95-16.25L456.95-16.25Q456.95-20.65 458.23-24.83 459.5-29 461.35-31.78 463.2-34.55 465.25-36.25 467.3-37.95 468.9-37.95L468.9-37.95Q471.6-37.95 471.6-33.7L471.6-33.7Q471.6-21.45 460.1-10.85L460.1-10.85Q465.45-9.9 465.45-7.1L465.45-7.1Q465.45-6.1 464.18-5.03 462.9-3.95 462.13-3.9 461.35-3.85 461.3-4.05L461.3-4.05Q461.3-4.2 461.85-4.55L461.85-4.55Q463.95-5.85 463.95-6.75L463.95-6.75Q463.95-8.8 458.3-9.25L458.3-9.25Q452.05-3.95 444.8-0.6 437.55 2.75 434.35 2.75L434.35 2.75Q432.75 2.75 431.83 2.05 430.9 1.35 430.75 0.65L430.75 0.65ZM455.25-9.4L455.25-9.4Q450.3-9.4 445.08-8.2 439.85-7 436.23-4.95 432.6-2.9 432.55-0.75L432.55-0.75Q432.7 1.1 435.35 1.1L435.35 1.1Q438.9 1.1 445-1.8 451.1-4.7 456.65-9.35L456.65-9.35Q456.15-9.4 455.25-9.4ZM479.22-3.8L479.22-3.8Q480.17-4.35 481.72-5.55L481.72-5.55Q485.52-8.55 485.77-8.55L485.77-8.55Q486.52-8.55 486.52-7.9 486.52-7.25 485.74-5.9 484.97-4.55 483.99-3.1 483.02-1.65 482.87-1.35L482.87-1.35Q482.92-1.3 483.09-1.3 483.27-1.3 485.07-2.63 486.87-3.95 488.82-5.43 490.77-6.9 491.12-7.13 491.47-7.35 491.77-7.35L491.77-7.35Q492.37-7.3 492.37-6.65L492.37-6.65Q492.37-6.4 490.67-4.13 488.97-1.85 488.97-1.2L488.97-1.2Q488.97-0.75 490.04-0.75 491.12-0.75 493.22-1.73 495.32-2.7 496.92-3.7L496.92-3.7 498.52-4.7Q498.57-4.6 498.57-4.3 498.57-4 498.12-3.8L498.12-3.8Q491.37 0.8 488.72 0.8L488.72 0.8Q487.17 0.8 487.17-0.4L487.17-0.4Q487.17-1.55 487.84-2.6 488.52-3.65 489.02-4.38 489.52-5.1 489.52-5.15L489.52-5.15Q487.22-3.5 484.07-1.2 480.92 1.1 480.52 1.1L480.52 1.1Q480.22 1.1 480.22 0.4 480.22-0.3 482.19-3.25 484.17-6.2 484.17-6.4 484.17-6.6 484.07-6.6L484.07-6.6 483.57-6.35 481.07-4.35Q480.82-4.15 480.12-3.7 479.42-3.25 479.24-3.25 479.07-3.25 479.07-3.48 479.07-3.7 479.22-3.8ZM512.13-16.5L512.13-16.5Q515.53-16.5 518.83-16.55L518.83-16.55Q524.18-23.4 526.13-23.4L526.13-23.4Q526.83-23.4 526.83-22.65L526.83-22.65Q526.83-20.25 523.33-16.65L523.33-16.65 527.13-16.7Q530.93-16.85 531.78-16.85 532.63-16.85 532.63-16.65L532.63-16.65Q532.63-15.7 531.33-15.65L531.33-15.65 521.93-15.25Q519.48-12.95 515.88-10.4L515.88-10.4Q512.08-4.15 512.08-1.9L512.08-1.9Q512.08-0.75 513.56-0.75 515.03-0.75 518.23-2.35L518.23-2.35 522.28-4.7Q522.33-4.6 522.33-4.3 522.33-4 521.88-3.8L521.88-3.8Q520.28-2.7 518.38-1.6L518.38-1.6Q514.33 0.45 512.18 0.45L512.18 0.45Q511.18 0.45 510.63 0.05 510.08-0.35 510.03-0.75L510.03-0.75 509.93-1.15Q509.93-2.85 512.23-6.88 514.53-10.9 517.68-15.1L517.68-15.1Q515.28-15 513.13-15 510.98-15 510.98-15.5L510.98-15.5Q510.98-16.45 512.13-16.5ZM525.28-21.6L525.28-21.6Q525.28-21.85 525.08-21.85L525.08-21.85Q523.93-21.85 519.98-16.6L519.98-16.6 522.48-16.6Q525.28-19.65 525.28-21.6ZM521.08-15.2L521.08-15.2Q519.48-15.2 518.93-15.15L518.93-15.15Q518.48-14.5 517.68-13.25 516.88-12 516.58-11.55L516.58-11.55Q519.18-13.45 521.08-15.2ZM545.94-3.5L545.94-3.5Q544.39-2.55 542.34-2.55L542.34-2.55 541.74-2.55Q540.39-1 538.87-0.03 537.34 0.95 536.24 0.95L536.24 0.95Q534.69 0.95 534.69-1.05 534.69-3.05 536.84-5.7L536.84-5.7Q536.64-6.25 536.64-7.05L536.64-7.05Q536.64-8.8 538.17-10.08 539.69-11.35 541.14-11.35L541.14-11.35Q544.19-11.35 544.19-8.05L544.19-8.05Q544.19-5.85 542.29-3.25L542.29-3.25 542.89-3.25Q544.49-3.25 545.64-4L545.64-4Q545.79-4.15 546.04-4.15 546.29-4.15 546.29-3.98 546.29-3.8 545.94-3.5ZM541.14-9.25L541.14-9.25Q541.39-9.35 541.54-9.35 541.69-9.35 541.69-9.13 541.69-8.9 541.14-8.5L541.14-8.5Q539.14-6.95 538.14-5.7L538.14-5.7Q539.24-3.95 541.49-3.4L541.49-3.4Q543.44-5.7 543.44-7.7L543.44-7.7Q543.44-8.85 542.69-9.45 541.94-10.05 540.77-10.05 539.59-10.05 538.59-9.38 537.59-8.7 537.59-7.93 537.59-7.15 537.74-6.7L537.74-6.7Q539.29-8.3 541.14-9.25ZM537.44-4.6L537.44-4.6Q536.64-3.25 536.64-1.6L536.64-1.6Q536.64-0.7 537.44-0.7L537.44-0.7Q538.79-0.7 540.79-2.7L540.79-2.7Q538.54-3.1 537.44-4.6ZM605.72-31.35L605.97-31.15Q605.97-31.05 605.9-30.93 605.82-30.8 604.42-28.1L604.42-28.1Q602.87-25.2 596.27-12.95L596.27-12.95Q603.67-15.7 609.52-21.18 615.37-26.65 615.37-30.8L615.37-30.8Q615.37-33.05 613.17-34.5 610.97-35.95 606.52-35.95 602.07-35.95 596.95-34.08 591.82-32.2 587.92-29.6 584.02-27 581.4-24.25 578.77-21.5 578.77-19.75L578.77-19.75Q578.77-17.8 581.9-17.8 585.02-17.8 589.05-19.88 593.07-21.95 596.27-25.4L596.27-25.4Q596.82-26.05 596.97-26.05L596.97-26.05Q597.32-26.05 597.32-25.7L597.32-25.7Q597.32-25.6 596.97-25L596.97-25Q595.32-22.5 589.65-19.13 583.97-15.75 580.25-15.75 576.52-15.75 576.52-18.1L576.52-18.1Q576.52-20.2 579.5-23.53 582.47-26.85 586.92-30 591.37-33.15 597.27-35.4 603.17-37.65 608.15-37.65 613.12-37.65 615.47-36.08 617.82-34.5 617.82-32L617.82-32Q617.82-27.65 612.3-22.1 606.77-16.55 598.97-13.2L598.97-13.2Q604.02-13.15 607.37-8.83 610.72-4.5 610.77 1.2L610.77 1.2Q610.77 1.9 610.52 1.9L610.52 1.9Q610.12 1.9 609.97 1.03 609.82 0.15 609.62-0.7 609.42-1.55 608.4-3.7 607.37-5.85 606-7.5 604.62-9.15 602.02-10.5 599.42-11.85 596.17-11.85L596.17-11.85 595.62-11.85Q592.02-5.3 589.57-1L589.57-1Q589.27-0.35 588.47 0 587.67 0.35 587.25 0.35 586.82 0.35 586.82 0.1L586.82 0.1 592.97-11.1Q590.97-10.6 588.87-10.35L588.87-10.35Q587.97-10.35 587.97-10.65L587.97-10.65Q587.97-11.2 588.52-11.25L588.52-11.25Q590.82-11.4 593.52-12.1L593.52-12.1 603.57-30.4Q603.72-30.8 604.47-31.08 605.22-31.35 605.72-31.35L605.72-31.35ZM629.19-4.85L629.19-4.85Q626.19-4.85 626.19-6.15L626.19-6.15Q626.19-7.7 629.74-9.83 633.29-11.95 636.14-11.95L636.14-11.95Q637.59-11.95 637.59-11.05L637.59-11.05Q637.59-10.55 636.84-9.95 636.09-9.35 635.39-9 634.69-8.65 634.59-8.65L634.59-8.65Q634.29-8.65 634.19-8.9L634.19-8.9Q634.09-9.25 634.71-9.63 635.34-10 635.34-10.45 635.34-10.9 634.21-10.9 633.09-10.9 630.69-9.33 628.29-7.75 628.29-6.75L628.29-6.75Q628.29-6 630.04-6L630.04-6Q630.34-6 631.14-6.05 631.94-6.1 631.94-5.85 631.94-5.6 629.46-4.05 626.99-2.5 626.99-1.4L626.99-1.4Q626.99-0.15 628.61-0.15 630.24-0.15 632.29-1L632.29-1Q635.59-2.45 638.29-4.1L638.29-4.1 639.24-4.7Q639.29-4.6 639.29-4.3 639.29-4 638.84-3.8L638.84-3.8Q636.19-2 633.04-0.38 629.89 1.25 627.36 1.25 624.84 1.25 624.84-0.43 624.84-2.1 629.19-4.85ZM661.2-5.95L661.2-5.95Q660.9-5.95 660.9-6.3L660.9-6.3 661.05-6.65Q661.95-7.5 661.95-8.1L661.95-8.1Q661.95-8.85 661.15-8.85L661.15-8.85Q659.4-8.85 656.42-6.43 653.45-4 653.45-2.1L653.45-2.1Q653.45-1.3 654.5-1.3 655.55-1.3 656.92-2.18 658.3-3.05 659.27-3.93 660.25-4.8 660.35-4.8L660.35-4.8Q660.85-4.75 660.85-4.3L660.85-4.3Q660.85-4.1 660.07-3 659.3-1.9 659.3-1.25L659.3-1.25Q659.3-0.75 660.12-0.75 660.95-0.75 663.05-1.73 665.15-2.7 666.75-3.7L666.75-3.7 668.35-4.7Q668.4-4.6 668.4-4.3 668.4-4 667.95-3.8L667.95-3.8Q661.2 0.8 658.55 0.8L658.55 0.8Q657.25 0.8 657.25-0.5L657.25-0.5Q657.25-1.05 657.45-1.65L657.45-1.65Q657.1-1.25 655.37-0.43 653.65 0.4 652.3 0.4 650.95 0.4 650.95-0.85L650.95-0.85Q650.95-3.8 655.05-6.88 659.15-9.95 661.95-9.95L661.95-9.95Q663.6-9.95 663.6-8.55L663.6-8.55Q663.6-7.75 662.6-6.85 661.6-5.95 661.2-5.95ZM682.21 0.8L682.21 0.8Q679.96 0.8 679.96-1.65L679.96-1.65Q679.96-4.9 683.49-10.98 687.01-17.05 691.54-21.88 696.06-26.7 698.66-26.7L698.66-26.7Q699.61-26.7 699.61-25.35L699.61-25.35Q699.61-23.25 696.09-18.5 692.56-13.75 688.51-9.6 684.46-5.45 682.26-3.9L682.26-3.9Q682.16-3.1 682.16-2.83 682.16-2.55 682.21-2.2 682.26-1.85 682.61-1.3 682.96-0.75 683.79-0.75 684.61-0.75 686.71-1.73 688.81-2.7 690.41-3.7L690.41-3.7 692.01-4.7Q692.06-4.6 692.06-4.3 692.06-4 691.61-3.8L691.61-3.8Q684.86 0.8 682.21 0.8ZM697.81-24.15L697.81-24.15Q697.76-25.25 697.16-25.25L697.16-25.25Q695.61-25.25 692.46-21.75 689.31-18.25 686.36-13.38 683.41-8.5 682.51-5L682.51-5Q684.61-6.7 687.91-10 691.21-13.3 694.41-17.55 697.61-21.8 697.81-24.15ZM713.43-15.25L713.43-15.25Q714.18-15.25 714.18-14.5 714.18-13.75 713.48-12.98 712.78-12.2 711.93-12.2L711.93-12.2Q711.23-12.2 711.23-13.18 711.23-14.15 712.03-14.7 712.83-15.25 713.43-15.25ZM708.73-8.65L708.73-8.65Q708.98-9.05 709.43-9.05 709.88-9.05 710.33-8.6L710.33-8.6Q710.33-8.4 709.68-7.7 709.03-7 707.48-4.58 705.93-2.15 705.93-1.35L705.93-1.35Q705.93-0.85 706.68-0.75L706.68-0.75Q707.68-0.75 709.78-1.73 711.88-2.7 713.48-3.7L713.48-3.7 715.08-4.7Q715.13-4.6 715.13-4.3 715.13-4 714.68-3.8L714.68-3.8Q707.93 0.8 705.28 0.8L705.28 0.8Q703.98 0.8 703.98-0.5 703.98-1.8 705.4-4.13 706.83-6.45 708.73-8.65ZM728.69-16.5L728.69-16.5Q732.09-16.5 735.39-16.55L735.39-16.55Q740.74-23.4 742.69-23.4L742.69-23.4Q743.39-23.4 743.39-22.65L743.39-22.65Q743.39-20.25 739.89-16.65L739.89-16.65 743.69-16.7Q747.49-16.85 748.34-16.85 749.19-16.85 749.19-16.65L749.19-16.65Q749.19-15.7 747.89-15.65L747.89-15.65 738.49-15.25Q736.04-12.95 732.44-10.4L732.44-10.4Q728.64-4.15 728.64-1.9L728.64-1.9Q728.64-0.75 730.11-0.75 731.59-0.75 734.79-2.35L734.79-2.35 738.84-4.7Q738.89-4.6 738.89-4.3 738.89-4 738.44-3.8L738.44-3.8Q736.84-2.7 734.94-1.6L734.94-1.6Q730.89 0.45 728.74 0.45L728.74 0.45Q727.74 0.45 727.19 0.05 726.64-0.35 726.59-0.75L726.59-0.75 726.49-1.15Q726.49-2.85 728.79-6.88 731.09-10.9 734.24-15.1L734.24-15.1Q731.84-15 729.69-15 727.54-15 727.54-15.5L727.54-15.5Q727.54-16.45 728.69-16.5ZM741.84-21.6L741.84-21.6Q741.84-21.85 741.64-21.85L741.64-21.85Q740.49-21.85 736.54-16.6L736.54-16.6 739.04-16.6Q741.84-19.65 741.84-21.6ZM737.64-15.2L737.64-15.2Q736.04-15.2 735.49-15.15L735.49-15.15Q735.04-14.5 734.24-13.25 733.44-12 733.14-11.55L733.14-11.55Q735.74-13.45 737.64-15.2ZM764.25-9.35Q764.25-9.3 763.13-7.58 762-5.85 761.38-4.95 760.75-4.05 756.15 3.45L756.15 3.45Q756.55 3.4 757.45 3.4L757.45 3.4Q759.85 3.4 759.85 4.65L759.85 4.65Q759.85 5.35 758.95 6.3 758.05 7.25 757.55 7.25 757.05 7.25 757.05 6.9L757.05 6.9Q757.05 6.7 757.6 6.28 758.15 5.85 758.15 5.28 758.15 4.7 757.18 4.7 756.2 4.7 755.3 4.85L755.3 4.85Q750.75 12.3 747.45 16.5 744.15 20.7 741.8 20.7L741.8 20.7Q740.1 20.7 740.1 18.95L740.1 18.95Q740.1 15.95 744.63 10.63 749.15 5.3 754.45 3.8L754.45 3.8 759.25-4.5Q757.15-2.6 754.93-1.15 752.7 0.3 751.55 0.3 750.4 0.3 750.4-0.75L750.4-0.75Q750.4-2.35 755.65-9.6L755.65-9.6Q755.9-10 756.3-10L756.3-10Q757.45-9.65 757.45-9.5 757.45-9.35 757.15-8.9L757.15-8.9Q752.65-2.8 752.65-1.85L752.65-1.85Q752.65-1.25 753.33-1.25 754-1.25 756.13-2.85 758.25-4.45 759.75-6.1L759.75-6.1 762.55-9.5Q762.85-9.85 763.3-9.85L763.3-9.85Q764.25-9.7 764.25-9.35L764.25-9.35ZM744.95 11.68Q743.5 13.65 742.65 15.43 741.8 17.2 741.8 18.23 741.8 19.25 742.6 19.25L742.6 19.25Q745.1 19.25 753.55 5.25L753.55 5.25Q751.05 6.05 748.73 7.88 746.4 9.7 744.95 11.68Z" opacity="1" transform="matrix(1,0,0,1,0,0)" fill="#000000" class="undefined-text-1" data-fill-palette-color="secondary" id="text-1"></path></svg></g></svg></g></svg></g></svg></g><g><svg viewBox="0 0 94.38635088663065 94.38596015065025" height="94.38596015065025" width="94.38635088663065"><g><svg xmlns="http://www.w3.org/2000/svg" xmlns:xlink="http://www.w3.org/1999/xlink" version="1.0" x="0" y="0" viewBox="4.667734146118164 4.6859588623046875 90.3050308227539 90.30465698242188" enable-background="new 0 0 100 100" xml:space="preserve" height="94.38596015065025" width="94.38635088663065" class="icon-icon-0" data-fill-palette-color="accent" id="icon-0"><path d="M17.504 35.743c-1.334 8.611 0.522 17.134 5.093 23.382 3.514 4.801 8.413 7.905 13.796 8.739 5.677 0.88 11.253-0.429 15.703-3.685 1.248-0.912 2.36-1.946 3.326-3.076-2.222 0.978-4.814 1.267-7.626 0.831-11.717-1.816-19.673-13.464-17.735-25.964 0.934-6.03 4.384-11.497 9.713-15.397 6.768-4.952 15.953-6.97 25.201-5.537 7.474 1.158 17.67 5.964 25.56 15.213 0 0-22.835-39.421-56.115-20.356C23.689 16.04 18.653 28.323 17.504 35.743z" fill="#000000" data-fill-palette-color="accent"></path><path d="M82.544 65.256c1.659-8.555 0.125-17.141-4.207-23.557-3.331-4.931-8.109-8.217-13.457-9.253-5.639-1.094-11.261 0.004-15.83 3.091-1.282 0.863-2.431 1.854-3.44 2.947 2.257-0.894 4.859-1.084 7.652-0.543 11.64 2.257 19.151 14.196 16.744 26.616-1.161 5.989-4.815 11.324-10.288 15.019-6.949 4.692-16.205 6.364-25.393 4.582C26.902 82.719 16.894 77.532 9.358 67.992c0 0 21.331 40.255 55.307 22.457C75.621 84.712 81.115 72.628 82.544 65.256z" fill="#000000" data-fill-palette-color="accent"></path><path d="M35.726 82.88c8.611 1.334 17.133-0.522 23.381-5.094 4.801-3.514 7.905-8.413 8.74-13.796 0.879-5.676-0.429-11.253-3.686-15.702-0.912-1.248-1.946-2.36-3.076-3.327 0.979 2.222 1.267 4.815 0.831 7.626-1.816 11.717-13.463 19.673-25.965 17.736-6.029-0.934-11.497-4.385-15.395-9.713-4.952-6.768-6.971-15.954-5.538-25.202 1.158-7.474 5.964-17.67 15.213-25.559 0 0-39.421 22.835-20.356 56.115C16.022 76.695 28.305 81.73 35.726 82.88z" fill="#000000" data-fill-palette-color="accent"></path><path d="M90.432 35.718c-5.738-10.955-17.822-16.45-25.194-17.879-8.554-1.659-17.141-0.125-23.557 4.208-4.931 3.331-8.217 8.108-9.254 13.456-1.094 5.64 0.004 11.261 3.092 15.83 0.863 1.282 1.854 2.431 2.946 3.441-0.894-2.257-1.084-4.859-0.542-7.652 2.257-11.64 14.196-19.151 26.615-16.744 5.99 1.161 11.324 4.816 15.019 10.289 4.693 6.949 6.363 16.204 4.583 25.392-1.44 7.423-6.626 17.431-16.167 24.966C67.973 91.025 108.228 69.694 90.432 35.718z" fill="#000000" data-fill-palette-color="accent"></path></svg></g></svg></g></svg></g><defs></defs></svg><rect width="395.5199999999999" height="74.43958326064991" fill="none" stroke="none" visibility="hidden"></rect></g></svg></g></svg>